<?xml version="1.0" encoding="UTF-8" standalone="no"?>
<!-- Created with Inkscape (http://www.inkscape.org/) -->

<svg
   xmlns:dc="http://purl.org/dc/elements/1.1/"
   xmlns:cc="http://creativecommons.org/ns#"
   xmlns:rdf="http://www.w3.org/1999/02/22-rdf-syntax-ns#"
   xmlns:svg="http://www.w3.org/2000/svg"
   xmlns="http://www.w3.org/2000/svg"
   xmlns:sodipodi="http://sodipodi.sourceforge.net/DTD/sodipodi-0.dtd"
   xmlns:inkscape="http://www.inkscape.org/namespaces/inkscape"
   width="165.573mm"
   height="172.81848mm"
   viewBox="0 0 165.573 172.81848"
   version="1.1"
   id="svg8"
   inkscape:version="0.92.5 (2060ec1f9f, 2020-04-08)"
   sodipodi:docname="drawing.svg">
  <defs
     id="defs2">
    <inkscape:path-effect
       effect="bend_path"
       id="path-effect8870"
       is_visible="true"
       bendpath="m 53.800138,239.25684 c 27.459578,21.76448 58.160352,25.56737 94.161012,0"
       prop_scale="1"
       scale_y_rel="false"
       vertical="false"
       bendpath-nodetypes="cc" />
    <inkscape:path-effect
       effect="bend_path"
       id="path-effect8817"
       is_visible="true"
       bendpath="m 88.225695,41.495851 c 6.501843,-6.316476 13.548705,-6.686234 21.418155,0"
       prop_scale="1"
       scale_y_rel="false"
       vertical="false"
       bendpath-nodetypes="cc" />
    <inkscape:path-effect
       effect="envelope"
       id="path-effect5085"
       is_visible="true"
       yy="true"
       xx="true"
       bendpath1="m 54.334674,26.248376 c 25.51369,-14.590844 49.590356,-31.8297665 97.857246,0"
       bendpath2="M 152.19192,26.248376 V 38.722539"
       bendpath3="m 54.334674,38.722539 c 29.653833,-10.674896 61.891686,-12.047331 97.857246,0"
       bendpath4="M 54.334674,26.248376 V 38.722539"
       bendpath1-nodetypes="cc"
       bendpath3-nodetypes="cc" />
  </defs>
  <sodipodi:namedview
     id="base"
     pagecolor="#ffffff"
     bordercolor="#666666"
     borderopacity="1.0"
     inkscape:pageopacity="0.0"
     inkscape:pageshadow="2"
     inkscape:zoom="0.98994949"
     inkscape:cx="317.1815"
     inkscape:cy="336.34369"
     inkscape:document-units="mm"
     inkscape:current-layer="layer2"
     showgrid="false"
     inkscape:window-width="1848"
     inkscape:window-height="1016"
     inkscape:window-x="72"
     inkscape:window-y="27"
     inkscape:window-maximized="1"
     inkscape:snap-global="false"
     inkscape:object-paths="false"
     inkscape:snap-intersection-paths="false"
     inkscape:snap-smooth-nodes="false"
     inkscape:object-nodes="false"
     inkscape:snap-midpoints="false"
     fit-margin-top="0"
     fit-margin-left="0"
     fit-margin-right="0"
     fit-margin-bottom="0" />
  <metadata
     id="metadata5">
    <rdf:RDF>
      <cc:Work
         rdf:about="">
        <dc:format>image/svg+xml</dc:format>
        <dc:type
           rdf:resource="http://purl.org/dc/dcmitype/StillImage" />
        <dc:title></dc:title>
      </cc:Work>
    </rdf:RDF>
  </metadata>
  <g
     inkscape:groupmode="layer"
     id="layer2"
     inkscape:label="Logo"
     transform="translate(-19.917991,-50.38029)">
    <g
       id="g4942"
       transform="translate(-4.6914486,4.7616596)"
       inkscape:export-xdpi="10.331425"
       inkscape:export-ydpi="10.331425">
      <path
         sodipodi:nodetypes="sssssssssss"
         inkscape:connector-curvature="0"
         id="path4877"
         d="m 167.44305,134.4692 c 3.4745,26.5194 -5.97792,40.79781 -22.03158,50.16929 -14.367,8.38688 -22.20553,9.71567 -36.2353,9.71567 -13.259031,0 -31.28223,-4.8036 -41.225623,-11.52841 -16.07128,-10.86914 -21.317576,-25.27366 -21.317576,-48.62382 0,-5.95994 4.620151,-19.35855 6.778329,-24.39564 3.12456,-7.29257 3.53492,-10.925295 7.757617,-17.494119 5.964252,-9.27798 11.841359,-18.55378 21.74306,-22.52187 17.550873,-7.03349 16.416552,-5.09504 26.531463,-5.09504 20.01018,0 36.1428,8.32698 47.344,23.08145 8.21698,10.823584 8.57785,30.833869 10.65561,46.692489 z"
         style="opacity:1;fill:#000000;fill-opacity:0.29807691;stroke:#000000;stroke-width:1.39999998;stroke-linecap:round;stroke-linejoin:round;stroke-miterlimit:4;stroke-dasharray:none;stroke-dashoffset:0;stroke-opacity:1" />
      <g
         transform="translate(-0.94494048,1.1339286)"
         id="g4931">
        <path
           style="fill:#000000;fill-opacity:1;stroke:#000000;stroke-width:0.50300002;stroke-linecap:butt;stroke-linejoin:miter;stroke-miterlimit:4;stroke-dasharray:none;stroke-opacity:1"
           d="m 103.07333,69.892329 c 15.2847,1.445736 30.71297,0.425587 39.56893,10.799184 5.04975,5.430906 12.00639,12.234512 14.26582,19.400927 3.69591,10.93118 4.25501,17.07378 5.01096,21.4205 0.75595,4.34673 2.26786,15.875 1.13393,19.84375 -1.77447,12.95915 -0.80984,26.14334 -12.41392,35.18421 -4.34673,2.45685 -14.04441,7.71609 -21.22596,8.66103 -12.51642,2.83136 -28.56759,2.55103 -41.010419,0 -7.748513,-1.70089 -17.00893,-5.66964 -20.410715,-8.88244 -11.363722,-10.87515 -14.062642,-19.67554 -15.067627,-32.11454 -0.188989,-2.64583 1.322916,-11.7117 1.133927,-14.54652 3.433232,-19.78918 13.23101,-46.58201 27.540843,-53.405357 5.778929,-4.134753 13.810202,-5.037624 21.474231,-6.360744 z"
           id="path4865"
           inkscape:connector-curvature="0"
           sodipodi:nodetypes="cccsccccccccc" />
        <g
           id="g4922">
          <path
             inkscape:connector-curvature="0"
             id="path4900"
             d="m 71.059523,111.98065 c 0,0 3.401785,-1.88988 0,-3.2128 -3.401785,-1.32291 -4.91369,-0.75595 -4.157739,-4.34672 0.755954,-3.59078 0.377976,-4.535716 1.511906,-5.291668 1.133927,-0.755951 1.322917,-3.590774 2.078868,-5.291666 0.755952,-1.700893 2.456847,-2.456844 3.590774,-4.346726 1.133928,-1.889882 1.322917,-2.645833 1.322917,-4.157739 0,-1.511903 0.755952,-3.96875 1.700893,-4.346726 0.94494,-0.377976 6.236607,-0.566962 6.992559,0.377976 0.755954,0.944941 -0.566963,-2.645833 0.566965,-3.779761 1.133927,-1.133927 3.401785,-1.133927 5.102677,-1.700892 1.700895,-0.566965 2.834823,-1.13393 5.291667,-1.700893 2.456846,-0.566965 2.834822,-0.377975 5.66964,-1.322916 2.83482,-0.944941 4.91369,-2.267858 5.48066,-0.566965 0.56696,1.700892 0.94494,5.291666 1.32291,6.236607 0.37798,0.944941 3.02381,4.535715 1.88989,5.858632 -1.13393,1.322916 -4.91369,4.724701 -2.64584,4.535712 2.26786,-0.188987 3.77976,0.755954 4.7247,-1.133927 0.94495,-1.889882 0.94495,-1.322917 0.37798,-3.779764 -0.56696,-2.456844 -1.32292,-3.96875 -1.70089,-5.669642 -0.37798,-1.700893 -0.94494,-2.83482 0.75595,-3.401785 1.70089,-0.566965 5.10268,-2.456844 9.63839,-2.456844 4.53572,0 3.59078,1.700892 3.59078,3.590771 0,1.889882 -2.64584,3.023812 -0.56697,5.10268 2.07887,2.078869 3.96875,4.724702 5.66965,4.535715 1.70089,-0.188989 2.64583,1.133928 3.21279,-1.13393 0.56697,-2.267857 -0.18899,-3.401785 1.32292,-3.96875 1.5119,-0.566965 4.53571,-0.755951 6.23661,0.377976 1.70089,1.13393 1.32291,1.700893 3.40178,3.96875 2.07887,2.267858 5.85863,2.834823 3.02381,4.346726 -2.83482,1.511906 -2.83482,2.267857 -1.13393,3.590774 1.7009,1.322917 0.56697,2.267858 2.83482,0.944941 2.26786,-1.322917 3.40179,-2.456844 4.15774,-0.755952 0.75596,1.700893 3.02381,4.346726 0.75596,4.724702 -2.26786,0.377976 -5.48066,2.645834 -9.07143,3.023804 -3.59078,0.37798 -8.31548,1.13393 -4.91369,2.07888 3.40178,0.94493 3.77976,1.88987 6.42559,1.32291 2.64583,-0.56696 1.51191,-0.56696 4.53572,-2.07887 3.02381,-1.5119 3.40178,-1.88988 4.34672,-0.37797 0.94494,1.5119 1.88988,3.21279 1.13393,4.15773 -0.75595,0.94495 -2.07887,1.51191 -0.94494,2.07887 1.13393,0.56697 3.40179,0.75595 1.5119,2.07887 -1.88988,1.32292 -4.34672,2.45685 -3.59077,3.96875 0.75595,1.51191 -1.32292,3.2128 1.13393,2.07887 2.45684,-1.13393 3.77976,-1.13393 4.15774,-0.37798 0.37797,0.75596 2.45684,2.64584 1.5119,3.59078 -0.94494,0.94494 -0.56696,0.75595 0.18899,2.64583 0.75595,1.88988 1.88988,2.64583 1.70089,4.91369 -0.18898,2.26786 0.75596,3.40179 -1.32291,3.59078 -2.07887,0.18899 1.5119,-0.18899 0.56696,2.45684 -0.94494,2.64583 -3.02381,1.88988 -2.64583,4.53572 0.37797,2.64583 2.83482,1.5119 3.40178,4.15773 0.56697,2.64584 3.02381,3.2128 -0.94494,3.59078 -3.96875,0.37797 -4.7247,0.37797 -8.88244,-0.37798 -4.15774,-0.75595 -7.18155,-1.5119 -7.55952,0.75595 -0.37798,2.26786 -2.45685,3.2128 3.77976,4.15774 6.23661,0.94494 7.74851,0 9.82738,3.2128 2.07887,3.2128 3.77976,8.12649 1.51191,9.44941 -2.26786,1.32291 -8.50447,-2.45685 -6.23661,-0.37798 2.26786,2.07887 7.37053,2.07887 5.48065,3.96875 -1.88988,1.88988 -4.34672,5.66964 -7.74851,3.59077 -3.40178,-2.07887 -3.02381,-7.55952 -5.66964,-4.15774 -2.64583,3.40179 -0.37798,5.66965 -4.15774,5.29167 -3.77976,-0.37798 -4.7247,-0.18899 -6.04762,1.88988 -1.32291,2.07887 -1.5119,1.51191 -2.26785,4.7247 -0.75596,3.2128 -0.56697,6.61459 -3.77977,6.4256 -3.21279,-0.18899 -6.80357,2.07887 -4.91369,-1.51191 1.88988,-3.59077 3.40179,-3.02381 2.45685,-6.80357 -0.94494,-3.77976 -2.07887,-6.80357 -3.2128,-3.02381 -1.13393,3.77976 -2.83482,5.29167 -1.32292,7.18155 1.51191,1.88988 4.15774,3.40179 -0.18898,3.96875 -4.34673,0.56696 -9.26042,1.13393 -8.31548,-0.75595 0.94494,-1.88988 1.13393,-1.13393 -2.07887,-1.32292 -3.2128,-0.18899 -4.15774,1.51191 -3.59077,-1.5119 0.56696,-3.02381 2.83482,-1.32292 2.07887,-5.66965 -0.75596,-4.34672 1.13392,-9.26041 -1.51191,-6.42559 -2.64583,2.83482 -3.2128,2.26786 -2.26786,4.7247 0.94494,2.45685 1.32292,3.59077 0.75596,5.10268 -0.56697,1.5119 3.59077,3.40178 0.75595,4.53571 -2.83482,1.13393 -2.64583,2.26786 -5.48066,1.7009 -2.834817,-0.56697 -3.023806,-2.45685 -4.157734,-2.26786 -1.13393,0.18899 -0.377976,-0.56697 -2.078868,0.94494 -1.700895,1.5119 -2.456847,5.29167 -2.834822,1.32292 -0.377976,-3.96875 2.078868,-10.58334 -0.944941,-9.26042 -3.023809,1.32292 -4.346726,2.83482 -5.102678,3.96875 -0.755954,1.13393 -1.889881,3.96875 -4.346725,2.64583 -2.456847,-1.32291 -0.944941,-2.83482 -3.023812,-3.21279 -2.078868,-0.37798 -3.212796,1.88988 -5.669643,0 -2.456844,-1.88989 -7.370535,-3.40179 -6.047618,-5.10268 1.322917,-1.7009 3.401785,-1.88988 3.401785,-5.29167 0,-3.40179 1.13393,-5.85863 -1.133927,-5.10268 -2.267858,0.75595 -2.456847,3.96875 -5.480656,2.26786 -3.023809,-1.70089 -3.590774,-2.26786 -5.291667,-3.77976 -1.700892,-1.51191 -4.913691,-5.10268 -2.83482,-5.66965 2.078869,-0.56696 2.078869,1.32292 5.480654,1.51191 3.401787,0.18899 6.04762,0.75595 8.315475,-1.13393 2.267858,-1.88988 3.96875,-5.48065 -0.188986,-5.29166 -4.15774,0.18898 -6.425597,3.21279 -9.449406,1.5119 -3.023809,-1.70089 -5.102678,-1.13393 -5.291667,-5.10268 -0.188986,-3.96875 0.755955,-5.10268 2.267858,-5.66964 1.511906,-0.56697 2.645833,-4.53572 1.511906,-6.4256 -1.13393,-1.88988 -3.212799,-4.53571 -1.700893,-5.66964 1.511903,-1.13393 4.535713,1.70089 5.291667,-0.37798 0.755951,-2.07886 -1.322917,-0.37797 -2.267858,-3.40178 -0.944941,-3.02381 -5.669642,-6.99256 0.377976,-5.85863 6.047618,1.13392 8.693452,3.2128 6.425594,-0.37798 -2.267857,-3.59077 -5.669642,-4.34672 -2.456844,-5.48065 3.212798,-1.13393 2.83482,1.13393 4.913691,0.18898 2.078868,-0.94494 1.700892,-1.88988 1.700892,-1.88988 z"
             style="fill:#838383;fill-opacity:1;stroke:#000000;stroke-width:0;stroke-linecap:butt;stroke-linejoin:miter;stroke-miterlimit:4;stroke-dasharray:none;stroke-opacity:1" />
          <path
             sodipodi:nodetypes="ccccsssccccssccsccscscssscscscccsscscccccsccssccccsccsccsssssscscsssssssccsscsccsscsssscssssscscscsscsscsscsccsccsccccscccscccssccssscsssscsscsssssccccsscccscscsccccscsscsccccscscsccsscsccccccsscscsssssscssssscssssccscc"
             inkscape:connector-curvature="0"
             id="path4844"
             d="m 71.58273,156.66473 c 0,0 3.212799,-0.37798 1.700893,-5.66964 -1.511903,-5.29167 -5.858632,-2.45685 -9.260417,-2.64584 -3.401785,-0.18898 -0.377975,2.26786 -3.212798,1.88989 -2.83482,-0.37798 -3.212796,-0.37798 -3.96875,-2.64584 -0.755952,-2.26786 -0.755952,-0.18898 -0.377976,-3.40178 0.377976,-3.2128 3.212799,-3.2128 5.291667,-2.26786 2.078871,0.94494 5.10268,2.07887 8.126489,3.40178 3.023809,1.32292 4.346726,2.26786 6.425594,1.7009 2.078871,-0.56697 3.023809,-2.07887 0.566965,-3.40179 -2.456844,-1.32291 -2.078868,-2.83482 -6.047618,-2.45684 -3.96875,0.37797 -3.590774,0 -5.858632,0 -2.267857,0 -6.549734,-0.43727 -5.793779,-2.89412 0.755951,-2.45684 4.470863,3.83906 5.793779,1.38221 1.322917,-2.45684 1.511906,-4.53571 -1.700892,-5.29166 -3.212799,-0.75596 -4.535715,0.37797 -4.724702,-2.07887 -0.188989,-2.45685 2.456844,-2.83483 4.346726,-2.07887 1.889879,0.75595 2.078868,3.77976 5.102677,3.21279 3.023809,-0.56696 3.023809,-3.0238 5.480656,-1.13392 2.456844,1.88988 0,2.26785 1.889879,3.96875 1.889882,1.70089 2.834823,4.15773 5.10268,2.26785 2.267858,-1.88988 -0.188989,-2.64583 2.078868,-4.34672 2.267858,-1.7009 6.614584,-2.26786 2.834823,-3.2128 -3.779763,-0.94494 -3.96875,2.07887 -6.992559,-0.18899 -3.023812,-2.26786 -0.188989,-3.59077 -3.96875,-3.40178 -3.779763,0.18899 -2.456847,-1.7009 -4.346728,0.94494 -1.889879,2.64583 -2.078869,5.29166 -3.401785,2.45684 -1.322917,-2.83482 1.322916,-5.10268 -1.889882,-5.29167 -3.212796,-0.18898 -5.102677,-0.18898 -4.724702,-1.32291 0.377976,-1.13393 1.322917,-1.32292 3.590775,-1.70089 2.267857,-0.37798 4.535715,1.5119 5.291666,1.88988 0.755952,0.37797 1.700893,0.75595 1.889882,-1.32292 0.188986,-2.07887 1.133927,-1.88988 -0.944941,-3.77976 -2.078868,-1.88988 -3.779763,-2.26786 -3.779763,-3.77976 0,-1.51191 -0.377976,-1.32292 1.889881,0.18899 2.267858,1.5119 1.13393,2.07886 4.157739,2.26785 3.02381,0.18899 5.858629,1.13393 3.96875,-1.32292 -8.515516,-6.49025 5.015562,-7.50039 3.590775,-0.56696 -0.566965,2.45685 1.322916,2.64583 -2.267858,4.53571 -4.103609,4.78727 -0.02299,5.3922 0.377976,6.04762 1.700892,2.64584 2.078868,4.53572 4.157736,3.02381 2.078871,-1.5119 1.700896,-0.75595 1.13393,-2.64583 -0.566965,-1.88988 -1.511905,-1.70089 0.755952,-3.40178 2.267858,-1.7009 4.346726,-1.88989 3.023809,-3.40179 -1.322916,-1.51191 -2.267857,-1.13393 -1.322916,-2.83482 0.94494,-1.70089 3.023809,-0.94494 2.07887,-4.34673 -0.94494,-3.40179 1.133928,-4.7247 -1.700895,-4.15774 -2.83482,0.56697 -0.377975,0.75595 -2.078868,2.26786 -4.802696,3.68209 -1.653239,-4.45854 -7.181548,-4.91369 -2.42741,1.24916 -9.589602,-0.20992 -8.504462,-1.13393 0.94494,-0.75595 4.535712,1.32292 3.968749,-0.94494 -0.566965,-2.26786 -3.023809,-1.13393 -2.07887,-2.26786 1.819939,-4.590816 3.69368,0.56717 6.04762,1.51191 2.456845,0.94494 1.511904,1.32291 4.346726,2.45684 2.83482,1.13393 2.456844,1.51191 5.669643,0.75596 3.212798,-0.75596 6.047618,-0.37798 3.023809,-2.83482 -3.023809,-2.45685 -7.9375,-4.535724 -11.90625,-6.04763 -3.96875,-1.511903 -6.425594,-0.944941 -6.047618,-2.83482 0.377975,-1.889882 0.188986,-0.377976 2.456844,-2.834822 2.267857,-2.456845 0.755954,-3.96875 3.212798,-3.401785 2.456844,0.566965 1.133927,3.023809 3.401785,2.267857 2.267857,-0.755954 4.913691,-0.377976 1.889882,-2.834822 -3.023809,-2.456844 -4.346726,-1.889882 -5.102678,-3.212799 -0.755954,-1.322916 0.377976,-3.77976 1.322917,-3.212795 0.944938,0.566962 2.645833,-0.944941 3.590771,0.755951 0.944941,1.700893 -0.755951,3.023809 1.322917,3.590774 2.078871,0.566965 2.645833,3.590774 4.157739,1.511904 1.511906,-2.078869 2.078869,-1.133928 0.944941,-3.779761 -1.13393,-2.645833 -1.889882,-1.133928 -2.267857,-3.212798 -0.377976,-2.078869 -1.322917,-3.779761 0.377975,-2.645834 1.700893,1.13393 1.889882,3.023809 3.02381,1.700893 1.13393,-1.322917 0.755954,-1.511904 1.511905,-2.456844 0.755952,-0.944941 2.645834,-1.700893 2.83482,-0.566965 0.188989,1.13393 -0.755951,1.700892 0,3.401787 0.755955,1.700893 0.377979,3.023809 2.267858,3.023809 1.889881,0 2.078871,-0.566965 2.834822,-2.267857 0.755952,-1.700893 1.133926,-1.889882 0.188987,-3.401785 -0.944938,-1.511906 -2.645833,-2.078871 -0.377976,-2.267858 2.267855,-0.188989 5.669645,-3.96875 6.425595,-0.944941 0.75596,3.02381 -0.56696,4.724702 0.75596,6.047619 1.32291,1.322916 3.21279,1.13393 2.45684,3.212798 -0.75595,2.078868 -0.75595,-0.377976 -2.83482,0.944941 -2.07887,1.322917 -2.07887,0.377976 -3.77976,3.023809 -1.7009,2.645833 -3.779767,4.535715 -1.7009,5.291667 2.07887,0.755951 3.59078,0.94494 5.48066,-0.377976 1.88988,-1.322917 2.83482,-4.535715 2.64583,-0.944941 -0.18899,3.590774 -2.83482,4.724702 -0.94494,6.80357 1.88988,2.078874 3.40179,4.346734 4.7247,2.645834 1.32292,-1.700893 2.07887,0.37798 3.2128,0 1.13393,-0.37798 3.40179,-0.37798 1.32292,-2.456845 -2.07887,-2.078868 -6.4256,-4.346726 -2.45685,-3.212798 3.96875,1.13393 4.53572,1.511906 5.29167,-0.377976 0.75595,-1.889882 3.02381,-0.944941 -0.75595,-3.023809 -3.77976,-2.078869 -6.99256,-1.322917 -4.7247,-2.834823 2.26785,-1.511903 0.94494,0.188989 4.53571,-0.755951 3.59077,-0.944941 4.91369,-0.944941 2.26786,-2.645834 -2.64584,-1.700892 -7.18155,-0.566965 -6.99256,-2.456844 0.18899,-1.889881 1.32291,-0.188989 0.94494,-3.212798 -0.37798,-3.023809 -6.4256,-3.96875 -0.94494,-4.346726 5.48065,-0.377976 6.80357,-2.078868 7.9375,-0.566965 1.13393,1.511906 -0.18899,1.700893 0.18899,4.157739 0.37797,2.456844 -2.26786,2.645834 0.75595,4.346726 3.02381,1.700893 0.75595,1.889882 5.10268,3.023809 4.34672,1.133928 4.15773,2.267858 5.85863,0.188989 1.70089,-2.078871 -0.18899,-5.10268 2.26785,-4.346728 2.45685,0.755954 1.32292,1.511906 1.51191,3.212798 0.18899,1.700893 0.37797,2.267858 1.88988,-0.188986 1.5119,-2.456847 1.32292,-2.834823 2.07887,-0.377979 0.75595,2.456847 -0.56697,0 1.88988,1.511906 2.45684,1.511906 3.77976,0.755952 1.32292,2.456844 -2.45685,1.700895 -4.91369,1.511906 -4.15774,3.212799 0.75595,1.700892 2.07887,0.377975 3.59077,1.700892 1.51191,1.322917 0.75595,2.834823 3.40179,1.889882 2.64583,-0.944941 7.55952,-2.078869 4.7247,0.377976 -2.83482,2.456846 -5.10268,1.322916 -7.55952,2.645833 -2.45685,1.322916 -0.94494,0.566965 -6.04762,2.267859 -5.10268,1.7009 -8.88244,3.02381 -4.53572,3.59078 4.34673,0.56696 6.04762,0.94494 3.2128,3.02381 -2.83482,2.07886 -7.9375,3.96875 -3.2128,3.77976 4.72471,-0.18899 7.37054,-1.51191 7.55953,-2.83482 0.18898,-1.32292 -1.7009,-2.64584 2.07887,-3.02381 3.77976,-0.37798 5.10267,1.32291 6.61458,0 1.5119,-1.32292 0.56696,-3.59078 1.88988,-2.26786 1.32292,1.32292 3.96875,2.07887 1.70089,3.40179 -2.26785,1.32291 -2.26785,1.88988 -5.29166,1.5119 -3.02381,-0.37797 -4.72471,-1.5119 -5.10268,0.75595 -0.37798,2.26786 -1.13393,2.26786 1.70089,2.26786 2.83482,0 2.64583,1.70089 5.85863,-0.18899 3.2128,-1.88988 4.91369,-2.64583 3.59078,-0.75595 -1.32292,1.88988 -1.88989,0.56696 -3.59078,3.40178 -1.70089,2.83483 -2.64583,3.77977 -1.88988,5.48066 0.75595,1.70089 -1.13393,3.40179 1.13393,2.26786 2.26786,-1.13393 0.75595,-0.37798 3.77976,-2.45685 3.02381,-2.07887 5.29167,-3.21279 3.96875,-1.13393 -1.32292,2.07887 -1.5119,-0.75595 -2.83482,2.45685 -1.32292,3.2128 -4.15774,5.10268 -0.94494,3.96875 3.2128,-1.13393 3.96875,-5.66964 4.7247,-1.70089 0.75595,3.96875 4.34673,6.42559 1.13393,6.2366 -3.2128,-0.18899 -3.40179,-1.88988 -5.66964,0.18899 -2.26786,2.07887 -5.85863,2.07887 -1.32292,2.83482 4.53571,0.75595 7.37054,-1.88988 7.18155,0.56697 -0.18899,2.45684 -1.70089,0.37797 -3.2128,3.59077 -1.5119,3.2128 -4.7247,3.2128 -0.94494,4.91369 3.77976,1.70089 9.26042,3.02381 4.53571,3.02381 -4.7247,0 -2.45684,-0.94494 -7.74851,-0.94494 -5.29166,0 -5.10268,-4.15774 -8.69345,0.18899 -3.59077,4.34673 -6.61458,4.15774 -2.83482,5.85863 3.77976,1.70089 -1.88988,1.13393 3.59077,2.83482 10.14343,1.27666 14.35127,3.14839 13.41816,6.99256 -1.32292,2.64583 0,3.40179 -3.40179,1.70089 -3.40178,-1.70089 -4.34672,-1.88988 -6.04762,-2.26785 -1.70089,-0.37798 -4.91369,-1.7009 -3.59077,0.56696 1.32292,2.26786 2.26786,2.83482 4.91369,4.7247 2.64583,1.88988 8.50446,3.59078 4.91369,3.59078 -3.8657,1.8959 -9.10324,-6.6519 -11.90625,-3.77976 -1.88988,2.07886 2.07887,4.91368 -1.88988,3.77976 -3.96875,-1.13393 -3.96875,-2.64584 -3.96875,0.56696 0,3.2128 2.07887,2.07887 -1.32292,2.64583 -3.40178,0.56697 -1.5119,-5.66964 -3.77976,1.88988 -2.26786,7.55953 -1.13393,8.69346 -3.40179,9.82738 -2.26785,1.13393 -3.40178,2.07887 -1.5119,-2.07886 1.88988,-4.15774 1.13393,-3.77977 0.75595,-6.80358 -0.37797,-3.02381 3.96875,-2.83482 0.37798,-4.15773 -3.59078,-1.32292 -4.53572,-1.88988 -4.7247,0.18898 -0.18899,2.07887 -0.94494,0.94494 -2.45685,4.72471 -1.5119,3.77976 -0.18899,2.26785 0,5.10268 0.18899,2.83482 2.26786,4.91369 -0.94494,4.15773 -3.2128,-0.75595 -4.7247,2.07887 -3.77976,-1.70089 0.94494,-3.77976 5.29167,-6.99256 0,-4.15774 -5.29167,2.83482 -3.2128,4.91369 -5.48066,4.34673 -2.26785,-0.56697 -1.88988,-4.7247 -0.94494,-5.66964 0.94494,-0.94494 3.96875,-1.13393 1.88988,-3.96875 -2.07886,-2.83483 -4.53571,-3.77977 -3.02381,-4.15774 1.51191,-0.37798 0,0.18899 3.59078,-0.37798 3.59077,-0.56696 6.23661,0.75595 5.66964,-1.88988 -0.56696,-2.64583 0.56697,-3.59077 -1.5119,-2.83482 -2.07887,0.75595 -1.7009,2.64583 -4.91369,1.32292 -3.2128,-1.32292 -4.53572,1.32291 -3.2128,-1.32292 1.32292,-2.64583 2.07887,1.13393 2.45684,-3.40178 0.37798,-4.53572 0,-5.66965 1.13393,-5.66965 1.13393,0 2.64584,2.83482 3.40179,0.37798 0.75595,-2.45685 0.56696,-4.34673 -0.94494,-4.72471 -1.51191,-0.37797 -2.64584,-0.94494 -5.10268,-0.75595 -2.45685,0.18899 -7.18155,-0.75595 -6.99256,1.88988 0.18899,2.64584 -0.18899,3.2128 1.88988,3.59078 2.07887,0.37797 4.7247,2.45684 1.32292,2.64583 -3.40179,0.18899 -7.181552,-0.37798 -4.72471,2.07887 2.45685,2.45684 4.9137,1.70089 4.34673,3.02381 -0.56696,1.32292 1.32292,0.37798 -1.70089,1.51191 -3.02381,1.13392 -3.968754,1.70089 -2.64584,3.21279 1.32292,1.51191 1.51191,1.70089 2.83483,2.45685 1.32291,0.75595 2.64583,0.56696 1.70089,1.88988 -0.94494,1.32291 -2.64583,0.94494 -2.07887,2.83482 0.56696,1.88988 0.94494,2.64583 1.13393,3.96875 0.18899,1.32292 3.59077,3.77976 0.37797,4.15774 -3.21279,0.37797 -6.425592,3.02381 -6.047616,-0.94494 0.377976,-3.96875 2.645836,-6.04762 0.188987,-6.80358 -2.456844,-0.75595 -3.212796,-0.75595 -2.83482,1.51191 0.377976,2.26786 1.322917,2.83482 -0.188989,5.10268 -1.511903,2.26786 -3.212796,5.48065 -2.83482,1.70089 0.377976,-3.77976 -0.377976,-3.02381 0,-7.18155 0.377976,-4.15773 0,-5.85863 -1.511906,-7.55952 -1.511903,-1.70089 -2.456844,-3.96875 -2.645833,0.18899 -0.188987,4.15774 0.377976,3.77976 -2.078869,6.04762 -2.456846,2.26785 1.511904,3.59077 -2.456846,4.53571 -3.96875,0.94494 -6.236605,3.96875 -4.346726,-0.18899 1.889882,-4.15774 4.535715,-1.13393 5.10268,-6.04762 0.566962,-4.91368 3.96875,-5.10267 -0.755954,-6.42559 -4.724702,-1.32292 -2.267855,-6.23661 -4.913688,-1.32292 -2.645834,4.91369 -6.803573,4.34673 -3.023812,7.74851 3.779763,3.40179 6.425596,3.96875 1.511906,4.34673 -4.913691,0.37798 -5.291667,1.70089 -6.803573,-0.94494 -1.511903,-2.64583 -3.212795,-1.13393 -0.944938,-4.15774 2.267855,-3.02381 2.456844,-2.07887 2.645833,-6.04762 0.188987,-3.96875 1.322917,-6.61458 -1.13393,-5.66964 -5.875159,0.29675 -6.707794,6.32481 -9.827381,3.2128 -3.779761,-3.77976 -6.614584,-5.66965 -2.456844,-5.29167 4.157739,0.37798 2.267857,1.88988 5.480655,1.51191 3.212796,-0.37798 3.590772,-1.88989 6.425594,-2.45685 z"
             style="fill:#cacaca;fill-opacity:1;stroke:#000000;stroke-width:0;stroke-linecap:butt;stroke-linejoin:miter;stroke-miterlimit:4;stroke-dasharray:none;stroke-opacity:1" />
          <g
             style="fill:#000000;fill-opacity:1"
             id="g4893">
            <path
               style="fill:#000000;fill-opacity:1;stroke:#000000;stroke-width:0.50300002;stroke-linecap:butt;stroke-linejoin:miter;stroke-miterlimit:4;stroke-dasharray:none;stroke-opacity:1"
               d="m 116.92858,107.54293 c 0,0 4.27632,-5.74629 7.08265,-7.34991 2.80633,-1.60362 1.60361,2.27179 -1.46999,5.47903 -3.07359,3.20723 -6.28083,4.81085 -6.81537,7.61718 -0.53454,2.80633 2.00452,8.15172 2.00452,10.82442 0,2.67269 -1.46998,4.00904 -1.33635,7.61718 0.13364,3.60814 4.40995,4.40994 7.08265,7.88445 2.67269,3.4745 3.34087,3.34087 2.40542,5.61266 -0.93544,2.27179 -0.80181,2.53906 -4.54358,2.00452 -3.74177,-0.53454 -3.0736,-5.07812 -6.5481,-5.87993 -3.4745,-0.80181 -3.60814,-1.20271 -4.81085,-3.60814 -1.20272,-2.40542 0.66817,-11.22532 0.53454,-13.22984 -0.13364,-2.00452 -0.93545,-7.48355 0.4009,-11.89349 1.33635,-4.40995 2.27179,-1.60362 6.01356,-5.07813 z"
               id="path4836"
               inkscape:connector-curvature="0" />
            <path
               style="fill:#000000;fill-opacity:1;stroke:#000000;stroke-width:0.50300002;stroke-linecap:butt;stroke-linejoin:miter;stroke-miterlimit:4;stroke-dasharray:none;stroke-opacity:1"
               d="m 104.09965,106.60749 c 0,0 4.67721,3.4745 5.34539,5.21176 0.66817,1.73725 0.13363,6.41446 -0.26727,10.82441 -0.40091,4.40995 -0.80181,9.62171 -1.06908,12.2944 -0.26727,2.6727 -0.4009,4.00904 -2.93996,5.61266 -2.53906,1.60362 -4.94449,3.87541 -8.018093,5.21176 -3.073598,1.33634 -5.479026,-0.26727 -3.34087,-2.93997 2.138157,-2.67269 6.013567,-4.14268 7.082643,-6.81537 1.06908,-2.6727 3.20724,-7.21628 3.20724,-8.68626 0,-1.46998 -1.60362,-2.93997 -0.26727,-7.08264 1.33635,-4.14268 2.40542,-6.01357 2.00452,-7.21628 -0.40091,-1.20271 -0.93544,-4.81085 -4.54358,-6.68174 -3.608142,-1.87088 -2.6727,-5.7463 0.26727,-2.53906 2.93996,3.20724 2.53906,2.80633 2.53906,2.80633 z"
               id="path4838"
               inkscape:connector-curvature="0" />
          </g>
        </g>
      </g>
    </g>
    <g
       aria-label="DiffusionMRI"
       style="font-style:normal;font-weight:normal;font-size:3.52777767px;line-height:1.25;font-family:sans-serif;letter-spacing:0px;word-spacing:0px;fill:#000000;fill-opacity:1;stroke:none;stroke-width:0.26458332"
       id="text8792"
       inkscape:path-effect="#path-effect8817"
       transform="matrix(4.6055363,0,0,3.917667,-352.54758,-86.788645)">
      <path
         d="m 87.757694,40.596756 1.379203,1.454079 c 0.110273,-0.103002 0.221623,-0.20509 0.334015,-0.306161 0.284629,-0.255957 0.44525,-0.497028 0.478726,-0.736838 0.03424,-0.239224 -0.05595,-0.496705 -0.277261,-0.767483 -0.220172,-0.269387 -0.454186,-0.406541 -0.706929,-0.404825 -0.251122,-4.5e-5 -0.539014,0.138994 -0.847357,0.422437 -0.121625,0.111805 -0.241769,0.224769 -0.360397,0.338791 z m -0.491527,0.08135 c 0.199313,-0.199522 0.403273,-0.396177 0.611713,-0.589454 0.436509,-0.404754 0.844092,-0.607872 1.189808,-0.620443 0.347468,-0.01356 0.65448,0.161584 0.929454,0.512062 0.275968,0.351745 0.375583,0.69202 0.312031,1.012739 -0.06405,0.323232 -0.294667,0.648843 -0.687122,1.00222 -0.188489,0.16972 -0.374131,0.342288 -0.55676,0.517192 z"
         style="stroke-width:0.26458332"
         id="path8794"
         inkscape:original-d="m 88.57365,40.525191 v 1.999878 h 0.420302 q 0.532267,0 0.778591,-0.241156 0.248047,-0.241157 0.248047,-0.761366 0,-0.516765 -0.248047,-0.756199 -0.246324,-0.241157 -0.778591,-0.241157 z m -0.347955,-0.285942 h 0.714858 q 0.747585,0 1.097262,0.311781 0.349678,0.310058 0.349678,0.971517 0,0.664903 -0.3514,0.976684 -0.3514,0.311781 -1.09554,0.311781 h -0.714858 z"
         inkscape:connector-curvature="0" />
      <path
         d="m 90.101789,39.087997 c 0.09968,-0.07333 0.200067,-0.145743 0.301151,-0.217195 l 1.125444,1.588747 c -0.09094,0.06476 -0.181435,0.130395 -0.271456,0.196873 z m -0.44968,-0.610566 c 0.103439,-0.076 0.20768,-0.151048 0.312711,-0.225105 l 0.234133,0.330516 c -0.102921,0.07267 -0.205104,0.146306 -0.306533,0.220878 z"
         style="stroke-width:0.26458332"
         id="path8796"
         inkscape:original-d="m 90.928373,40.881759 h 0.316948 v 1.929253 h -0.316948 z m 0,-0.751031 h 0.316948 v 0.401354 h -0.316948 z"
         inkscape:connector-curvature="0" />
      <path
         d="m 92.954921,36.538342 0.1088,0.238966 c -0.110947,0.04982 -0.22132,0.100894 -0.331106,0.153195 -0.123513,0.05884 -0.198829,0.121924 -0.226151,0.18674 -0.02618,0.06441 -0.01171,0.149636 0.04258,0.256036 l 0.07749,0.15186 c 0.181342,-0.09185 0.364294,-0.180252 0.548792,-0.264998 l 0.103156,0.222804 c -0.18149,0.08362 -0.361517,0.170872 -0.540017,0.261549 l 0.764735,1.498668 c -0.09713,0.05045 -0.193901,0.102116 -0.290301,0.154941 l -0.799663,-1.483732 c -0.294353,0.157979 -0.584354,0.32514 -0.869706,0.500563 l 0.888521,1.440856 c -0.09426,0.05884 -0.188116,0.118718 -0.281542,0.179592 l -0.918696,-1.424375 c -0.09825,0.0632 -0.195918,0.127371 -0.292997,0.192462 l -0.138495,-0.20613 c 0.09839,-0.06588 0.197407,-0.130834 0.297026,-0.194813 l -0.07335,-0.113717 c -0.11727,-0.181819 -0.152671,-0.345964 -0.102569,-0.493506 0.04927,-0.147887 0.187909,-0.292507 0.416909,-0.425807 0.105388,-0.06135 0.211428,-0.121636 0.318106,-0.180834 l 0.129602,0.230373 c -0.106254,0.05911 -0.211884,0.119326 -0.316879,0.180613 -0.11812,0.06895 -0.187882,0.138125 -0.209679,0.205244 -0.02069,0.0666 8.72e-4,0.150857 0.06395,0.253147 l 0.09003,0.146002 c 0.289456,-0.17759 0.583793,-0.346843 0.882712,-0.506838 l -0.06384,-0.118454 c -0.102084,-0.189411 -0.124074,-0.354954 -0.06191,-0.497472 0.06135,-0.142868 0.211792,-0.275613 0.4516,-0.389439 0.11036,-0.05238 0.221322,-0.10356 0.332874,-0.153496 z"
         style="stroke-width:0.26458332"
         id="path8798"
         inkscape:original-d="m 94.073745,40.130728 v 0.26355 h -0.303169 q -0.170532,0 -0.237711,0.0689 -0.06546,0.0689 -0.06546,0.248047 v 0.170532 h 0.521932 v 0.246324 H 93.467405 V 42.81101 H 93.148737 V 41.128083 H 92.27885 v 1.682929 H 91.960179 V 41.128083 H 91.65701 v -0.246324 h 0.303169 V 40.7474 q 0,-0.322116 0.149861,-0.468533 0.149862,-0.148139 0.475423,-0.148139 h 0.299724 v 0.26355 h -0.303169 q -0.170532,0 -0.237711,0.0689 -0.06546,0.0689 -0.06546,0.248047 v 0.170532 h 0.869887 V 40.7474 q 0,-0.322116 0.149861,-0.468533 0.149862,-0.148139 0.475423,-0.148139 z"
         inkscape:connector-curvature="0" />
      <path
         d="m 93.975804,38.175764 -0.462659,-1.065925 c 0.113164,-0.04872 0.226884,-0.09606 0.341144,-0.141953 l 0.430863,1.064093 c 0.06802,0.167979 0.154486,0.280087 0.256541,0.337216 0.101998,0.05627 0.219989,0.05777 0.35688,0.007 0.164432,-0.06098 0.277024,-0.156429 0.340508,-0.29122 0.0644,-0.134718 0.07119,-0.291163 0.01556,-0.468753 l -0.323335,-1.032207 c 0.117474,-0.03657 0.235444,-0.07157 0.353895,-0.104948 l 0.519268,1.833971 c -0.101203,0.029 -0.202166,0.05953 -0.302872,0.09156 l -0.08758,-0.27959 c -0.04058,0.134332 -0.09995,0.244692 -0.178942,0.331957 -0.07834,0.08589 -0.179738,0.151708 -0.305919,0.199519 -0.208011,0.07882 -0.38944,0.0809 -0.551197,5.97e-4 -0.160952,-0.0799 -0.297161,-0.239416 -0.402161,-0.481326 10e-7,2e-6 2e-6,3e-6 2e-6,5e-6 z m 0.386305,-1.449952 z"
         style="stroke-width:0.26458332"
         id="path8800"
         inkscape:original-d="m 94.306288,42.049646 v -1.167887 h 0.316949 v 1.155829 q 0,0.273885 0.106798,0.411689 0.106798,0.136082 0.320394,0.136082 0.25666,0 0.404799,-0.163643 0.149861,-0.163642 0.149861,-0.446139 v -1.093818 h 0.316949 v 1.929253 h -0.316949 v -0.296278 q -0.11541,0.1757 -0.268717,0.261827 -0.151584,0.0844 -0.353122,0.0844 -0.332452,0 -0.504707,-0.206706 -0.172255,-0.206705 -0.172255,-0.604614 z m 0.79754,-1.214396 z"
         inkscape:connector-curvature="0" />
      <path
         d="m 97.449537,36.120992 0.02896,0.295769 c -0.106136,-0.0352 -0.216029,-0.05713 -0.328789,-0.06564 -0.112752,-0.0085 -0.228331,-0.0036 -0.345719,0.0149 -0.178572,0.0281 -0.308458,0.07665 -0.388083,0.140279 -0.07867,0.06365 -0.107424,0.142613 -0.08851,0.235897 0.01442,0.07114 0.05661,0.120904 0.125543,0.150207 0.06949,0.0285 0.197587,0.04287 0.387712,0.05045 0.04033,0.0016 0.08061,0.0034 0.120842,0.0054 0.249948,0.01086 0.430673,0.06033 0.539738,0.13725 0.110877,0.07616 0.170988,0.193101 0.184582,0.348675 0.01548,0.177217 -0.04555,0.322679 -0.17485,0.43951 -0.128825,0.117312 -0.310262,0.189916 -0.550399,0.229159 -0.100106,0.01636 -0.206119,0.02499 -0.31902,0.02651 -0.111599,0.0024 -0.231538,-0.002 -0.361065,-0.01239 l -0.0736,-0.314617 c 0.130843,0.03106 0.255013,0.0506 0.373915,0.05816 0.118677,0.0065 0.232643,8.16e-4 0.343294,-0.01729 0.14832,-0.02426 0.258739,-0.06421 0.333084,-0.124176 0.07394,-0.06089 0.106575,-0.136527 0.09556,-0.228013 -0.01019,-0.08466 -0.04819,-0.146137 -0.115325,-0.183548 -0.06517,-0.03713 -0.205526,-0.06425 -0.418372,-0.07138 -0.04005,-0.002 -0.08015,-0.0037 -0.120298,-0.0053 -0.213942,-0.0036 -0.375113,-0.03239 -0.486124,-0.09418 -0.110658,-0.06257 -0.184335,-0.164631 -0.217721,-0.308162 -0.04056,-0.17436 -0.0016,-0.325996 0.123893,-0.452801 0.124872,-0.126178 0.326425,-0.217311 0.600788,-0.261711 0.13585,-0.02198 0.265573,-0.03206 0.38818,-0.03078 0.122619,0.0013 0.2368,0.01409 0.341786,0.03777 2e-6,-3e-6 4e-6,-6e-6 5e-6,-9e-6 z"
         style="stroke-width:0.26458332"
         id="path8802"
         inkscape:original-d="m 97.804782,40.938603 v 0.299723 q -0.134358,-0.0689 -0.279052,-0.103353 -0.144694,-0.03445 -0.299724,-0.03445 -0.235989,0 -0.354844,0.07235 -0.117134,0.07235 -0.117134,0.217041 0,0.110243 0.0844,0.173978 0.08441,0.06201 0.339342,0.118856 l 0.108521,0.02412 q 0.337619,0.07235 0.478868,0.204983 0.142971,0.130914 0.142971,0.366903 0,0.268717 -0.213596,0.425469 -0.211873,0.156752 -0.583943,0.156752 -0.15503,0 -0.323839,-0.03101 -0.167087,-0.02928 -0.353123,-0.08957 v -0.327284 q 0.1757,0.0913 0.346233,0.137804 0.170532,0.04479 0.337619,0.04479 0.223931,0 0.344509,-0.07579 0.120579,-0.07752 0.120579,-0.217041 0,-0.129191 -0.08785,-0.198093 -0.08613,-0.0689 -0.380683,-0.132636 l -0.110243,-0.02584 q -0.294556,-0.06201 -0.42547,-0.18948 -0.130913,-0.129191 -0.130913,-0.353122 0,-0.272163 0.192925,-0.420302 0.192925,-0.148139 0.54777,-0.148139 0.1757,0 0.330729,0.02584 0.15503,0.02584 0.285943,0.07751 z"
         inkscape:connector-curvature="0" />
      <path
         d="m 98.160051,36.013602 c 0.08447,-0.0035 0.169097,-0.0061 0.253893,-0.0078 0.04069,-2.38e-4 0.08135,-2.78e-4 0.121982,-1.22e-4 l 0.0055,1.92659 c -0.03414,6.83e-4 -0.06829,0.0016 -0.102451,0.0026 -0.07038,-3.6e-4 -0.1407,1.55e-4 -0.210966,0.0015 z m -0.02647,-0.748524 c 0.08999,-0.0043 0.180194,-0.0078 0.270603,-0.01025 0.04324,8.5e-5 0.08643,3.69e-4 0.129585,8.52e-4 l 0.0012,0.4008 c -0.0418,-3.08e-4 -0.08364,-4.19e-4 -0.125522,-3.31e-4 -0.08741,0.0021 -0.174635,0.0051 -0.261673,0.0089 z"
         style="stroke-width:0.26458332"
         id="path8804"
         inkscape:original-d="m 98.412842,40.881759 h 0.316948 v 1.929253 h -0.316948 z m 0,-0.751031 h 0.316948 v 0.401354 h -0.316948 z"
         inkscape:connector-curvature="0" />
      <path
         d="m 100.15751,36.336545 c -0.193302,-0.02555 -0.35445,0.02386 -0.477811,0.144496 -0.123716,0.119954 -0.191554,0.294581 -0.209739,0.52268 -0.01815,0.227606 0.01979,0.411624 0.107408,0.551228 0.08928,0.139161 0.217542,0.217002 0.389254,0.238857 0.169398,0.02156 0.312778,-0.02239 0.435128,-0.135355 0.12191,-0.112567 0.20596,-0.279525 0.24624,-0.502263 0.0401,-0.221982 0.0191,-0.406958 -0.0691,-0.555359 -0.0877,-0.149011 -0.22945,-0.238914 -0.4214,-0.264284 z m 0.0345,-0.263117 c 0.31996,0.04253 0.55548,0.174455 0.69891,0.38123 0.1442,0.207876 0.17752,0.465117 0.11303,0.77123 -0.0642,0.304586 -0.19718,0.526721 -0.38672,0.671105 -0.19036,0.144059 -0.41501,0.194021 -0.685034,0.159929 -0.271119,-0.03423 -0.474931,-0.138152 -0.621663,-0.325426 -0.144552,-0.187126 -0.216499,-0.437085 -0.201482,-0.749915 0.01511,-0.31472 0.112248,-0.556509 0.304897,-0.721304 0.192873,-0.163764 0.456633,-0.229576 0.778062,-0.186849 z"
         style="stroke-width:0.26458332"
         id="path8806"
         inkscape:original-d="m 100.14056,41.103968 q -0.254939,0 -0.403079,0.199815 -0.148139,0.198093 -0.148139,0.544325 0,0.346232 0.146417,0.546048 0.148139,0.198093 0.404801,0.198093 0.25321,0 0.40135,-0.199816 0.14814,-0.199815 0.14814,-0.544325 0,-0.342787 -0.14814,-0.542602 -0.14814,-0.201538 -0.40135,-0.201538 z m 0,-0.268718 q 0.41341,0 0.6494,0.268718 0.23599,0.268717 0.23599,0.74414 0,0.473701 -0.23599,0.744141 -0.23599,0.268717 -0.6494,0.268717 -0.415136,0 -0.651125,-0.268717 -0.234267,-0.27044 -0.234267,-0.744141 0,-0.475423 0.234267,-0.74414 0.235989,-0.268718 0.651125,-0.268718 z"
         inkscape:connector-curvature="0" />
      <path
         d="m 103.28816,37.708108 -0.42077,1.079322 c -0.10088,-0.0402 -0.20198,-0.07917 -0.30328,-0.116884 l 0.39224,-1.076873 c 0.0621,-0.170492 0.0713,-0.31138 0.0253,-0.423422 -0.0459,-0.111707 -0.14677,-0.194645 -0.30156,-0.245313 -0.186,-0.06088 -0.35002,-0.05387 -0.48747,0.01806 -0.13783,0.07212 -0.23005,0.198852 -0.28071,0.378031 l -0.29322,1.037127 c -0.10305,-0.02966 -0.20627,-0.05791 -0.30966,-0.08471 l 0.47149,-1.845751 c 0.1194,0.03032 0.23839,0.06214 0.35698,0.09542 l -0.0806,0.285087 c 0.1141,-0.08698 0.23658,-0.140813 0.36636,-0.160889 0.13096,-0.01968 0.27186,-0.0053 0.42025,0.04392 0.245,0.0813 0.40568,0.213017 0.47983,0.386733 0.0749,0.173375 0.0612,0.382999 -0.0352,0.630151 z"
         style="stroke-width:0.26458332"
         id="path8808"
         inkscape:original-d="m 103.15502,41.64657 v 1.164442 h -0.31695 v -1.154107 q 0,-0.273885 -0.1068,-0.409966 -0.1068,-0.136081 -0.32039,-0.136081 -0.25666,0 -0.4048,0.163642 -0.14814,0.163642 -0.14814,0.44614 v 1.090372 h -0.31867 v -1.929253 h 0.31867 v 0.299723 q 0.11369,-0.173977 0.26699,-0.260105 0.15503,-0.08613 0.35657,-0.08613 0.33245,0 0.50298,0.206706 0.17054,0.204983 0.17054,0.604614 z"
         inkscape:connector-curvature="0" />
      <path
         d="m 104.51769,36.697934 c 0.19113,0.08284 0.38081,0.168908 0.56901,0.258009 -0.0151,0.639461 -0.0549,1.275514 -0.117,1.907181 0.48868,-0.404149 0.99648,-0.795242 1.52063,-1.17305 0.18038,0.103326 0.35917,0.209221 0.53633,0.317499 l -1.36198,2.212975 c -0.10271,-0.06372 -0.20576,-0.126509 -0.30916,-0.188299 l 1.16016,-1.96181 c -0.52805,0.37804 -1.03988,0.769498 -1.53267,1.174142 -0.1109,-0.06079 -0.22221,-0.120398 -0.33391,-0.178773 0.0596,-0.635298 0.0962,-1.27488 0.10733,-1.917739 L 103.8,39.195646 c -0.10593,-0.05046 -0.21214,-0.09967 -0.31862,-0.147603 0.34544,-0.78337 0.69087,-1.566739 1.03631,-2.350109 z"
         style="stroke-width:0.26458332"
         id="path8810"
         inkscape:original-d="m 103.80097,40.239249 h 0.51849 l 0.65629,1.750108 0.65973,-1.750108 h 0.51849 v 2.571763 h -0.33934 v -2.25826 l -0.66318,1.763889 h -0.34968 l -0.66318,-1.763889 v 2.25826 h -0.33762 z"
         inkscape:connector-curvature="0" />
      <path
         d="m 108.09156,40.399614 c 0.0525,0.07094 0.0852,0.163726 0.0976,0.277827 0.0134,0.114886 0.007,0.254456 -0.0195,0.418182 -0.0408,0.266718 -0.0847,0.531754 -0.13115,0.794978 -0.10617,-0.08308 -0.21288,-0.165525 -0.32011,-0.247251 0.0411,-0.247692 0.0797,-0.496875 0.11559,-0.747445 0.0289,-0.195665 0.023,-0.343741 -0.0162,-0.443015 -0.0382,-0.09845 -0.1205,-0.193678 -0.24711,-0.28382 -0.11606,-0.08263 -0.23281,-0.164314 -0.35022,-0.244978 l -0.62287,0.906642 c -0.103,-0.07076 -0.2064,-0.140699 -0.3102,-0.209757 l 1.43851,-2.168394 c 0.26167,0.173163 0.51947,0.351233 0.77324,0.533568 0.28489,0.204694 0.45617,0.41298 0.51665,0.615105 0.0607,0.202839 0.0122,0.40264 -0.14079,0.600604 -0.0999,0.129235 -0.21737,0.209722 -0.35141,0.242739 -0.13312,0.03385 -0.27672,0.01852 -0.43202,-0.04498 z m -0.18407,-1.475563 -0.52318,0.761523 c 0.13715,0.09422 0.27335,0.18982 0.40857,0.28668 0.15544,0.11134 0.29407,0.165273 0.4186,0.16071 0.12603,-0.0047 0.23505,-0.06718 0.32621,-0.188813 0.0911,-0.121635 0.11983,-0.243217 0.0844,-0.365214 -0.0336,-0.121897 -0.13053,-0.242129 -0.29135,-0.357599 -0.13989,-0.100441 -0.28097,-0.199574 -0.4232,-0.297287 z"
         style="stroke-width:0.26458332"
         id="path8812"
         inkscape:original-d="m 108.06428,41.605229 q 0.11196,0.0379 0.21704,0.161919 0.1068,0.124024 0.21359,0.341065 l 0.35313,0.702799 h -0.3738 l -0.329,-0.659735 q -0.12747,-0.258383 -0.24805,-0.342787 -0.11886,-0.0844 -0.32556,-0.0844 h -0.37896 v 1.086927 h -0.34796 v -2.571763 h 0.78549 q 0.44097,0 0.65801,0.184312 0.21704,0.184313 0.21704,0.556383 0,0.242879 -0.11369,0.403076 -0.11196,0.160197 -0.32728,0.222209 z m -0.87161,-1.080038 v 0.912951 h 0.43753 q 0.25149,0 0.37896,-0.115411 0.12919,-0.117133 0.12919,-0.342787 0,-0.225654 -0.12919,-0.339342 -0.12747,-0.115411 -0.37896,-0.115411 z"
         inkscape:connector-curvature="0" />
      <path
         d="m 110.0579,40.197549 c 0.10456,0.08751 0.20827,0.175581 0.31113,0.264171 l -1.65992,1.96764 c -0.0966,-0.0796 -0.19374,-0.158777 -0.29135,-0.237462 z"
         style="stroke-width:0.26458332"
         id="path8814"
         inkscape:original-d="m 109.2959,40.239249 h 0.34795 v 2.571763 h -0.34795 z"
         inkscape:connector-curvature="0" />
    </g>
    <g
       aria-label="Lionel Peer"
       style="font-style:normal;font-weight:normal;font-size:17.42965889px;line-height:1.25;font-family:sans-serif;letter-spacing:0px;word-spacing:0px;fill:#000000;fill-opacity:1;stroke:none;stroke-width:1.30722427"
       id="text8847"
       transform="translate(1.823847,-40.320094)"
       inkscape:path-effect="#path-effect8870">
      <path
         d="m 57.575776,234.32754 c 0.462692,0.36576 0.927829,0.72768 1.395409,1.08548 l -6.858044,8.93665 c 1.861173,1.43125 3.774416,2.80909 5.739594,4.12128 l -0.804602,1.20355 c -2.547207,-1.70028 -5.00532,-3.50779 -7.37406,-5.39703 z"
         style="stroke-width:1.30722427"
         id="path8849"
         inkscape:connector-curvature="0"
         inkscape:original-d="m 53.800138,233.04838 h 1.719136 v 11.25949 h 6.187188 v 1.4468 h -7.906324 z" />
      <path
         d="m 63.879635,242.74762 c 0.462825,0.29656 0.928035,0.58872 1.395627,0.87626 l -4.988975,8.12303 c -0.519237,-0.31814 -1.034983,-0.6409 -1.547237,-0.96809 1.713528,-2.67707 3.427056,-5.35414 5.140585,-8.0312 z m 2.001154,-3.12643 c 0.443584,0.28464 0.88912,0.56488 1.336608,0.84051 l -1.037888,1.68988 c -0.458231,-0.28199 -0.914281,-0.5686 -1.368148,-0.85961 0.356476,-0.55693 0.712952,-1.11385 1.069428,-1.67078 z"
         style="stroke-width:1.30722427"
         id="path8851"
         inkscape:connector-curvature="0"
         inkscape:original-d="m 63.442619,236.22282 h 1.565946 v 9.53185 h -1.565946 z m 0,-3.71061 h 1.565946 v 1.98297 h -1.565946 z" />
      <path
         d="m 71.172936,248.15445 c -0.796895,-0.39547 -1.569969,-0.42902 -2.341824,-0.0935 -0.767069,0.32954 -1.431967,0.98905 -1.975296,1.98999 -0.543979,1.00213 -0.736192,1.91968 -0.555589,2.76115 0.188543,0.83737 0.726195,1.4864 1.606881,1.92341 0.868953,0.43119 1.708743,0.46286 2.493772,0.10172 0.787266,-0.36217 1.402787,-1.06662 1.867844,-2.10185 0.462,-1.02842 0.582014,-1.95494 0.382613,-2.76964 -0.197604,-0.82225 -0.686947,-1.41846 -1.478401,-1.81123 z m 0.589663,-1.18823 c 1.269554,0.63004 2.092336,1.48758 2.489616,2.62984 0.39541,1.13688 0.316424,2.43459 -0.289502,3.87654 -0.604837,1.43936 -1.481216,2.39924 -2.67389,2.84893 -1.185158,0.44253 -2.529899,0.31743 -3.971378,-0.39784 -1.447093,-0.71806 -2.355153,-1.71069 -2.716171,-2.91772 -0.353871,-1.2134 -0.120212,-2.49121 0.653139,-3.84618 0.775421,-1.3586 1.752775,-2.21201 2.894306,-2.58973 1.151645,-0.3764 2.338714,-0.23667 3.61388,0.39616 z"
         style="stroke-width:1.30722427"
         id="path8853"
         inkscape:connector-curvature="0"
         inkscape:original-d="m 71.978726,237.32069 q -1.259565,0 -1.991474,0.98723 -0.73191,0.97871 -0.73191,2.68934 0,1.71062 0.723399,2.69785 0.731909,0.97872 1.999985,0.97872 1.251055,0 1.982964,-0.98723 0.73191,-0.98723 0.73191,-2.68934 0,-1.69361 -0.73191,-2.68083 -0.731909,-0.99574 -1.982964,-0.99574 z m 0,-1.32765 q 2.042538,0 3.208487,1.32765 1.165949,1.32765 1.165949,3.67657 0,2.34041 -1.165949,3.67657 -1.165949,1.32765 -3.208487,1.32765 -2.051049,0 -3.216997,-1.32765 -1.157439,-1.33616 -1.157439,-3.67657 0,-2.34892 1.157439,-3.67657 1.165948,-1.32765 3.216997,-1.32765 z" />
      <path
         d="m 85.343525,256.1277 -1.302969,5.60347 c -0.608477,-0.14106 -1.214832,-0.29002 -1.81889,-0.44677 l 1.435626,-5.51929 c 0.226922,-0.87241 0.210698,-1.57564 -0.0348,-2.10488 -0.246375,-0.53113 -0.722667,-0.89387 -1.435224,-1.10586 -0.856275,-0.25475 -1.606399,-0.21531 -2.273125,0.13154 -0.664707,0.3458 -1.159089,0.95268 -1.463306,1.83195 l -1.762157,5.09314 c -0.591405,-0.20471 -1.17995,-0.41687 -1.765458,-0.63636 l 3.34237,-8.92979 c 0.511409,0.19126 1.025121,0.37617 1.540962,0.5546 l -0.484383,1.40001 c 0.563776,-0.41146 1.137316,-0.67045 1.725238,-0.77886 0.594103,-0.1067 1.214953,-0.0621 1.874668,0.13019 1.08705,0.31683 1.82709,0.85672 2.237142,1.66063 0.40927,0.79424 0.482037,1.8359 0.184311,3.11628 z"
         style="stroke-width:1.30722427"
         id="path8855"
         inkscape:connector-curvature="0"
         inkscape:original-d="m 86.872234,240.00152 v 5.75315 h -1.565946 v -5.70209 q 0,-1.35318 -0.527656,-2.02551 -0.527655,-0.67234 -1.582967,-0.67234 -1.268076,0 -1.999985,0.80851 -0.73191,0.8085 -0.73191,2.20423 v 5.3872 h -1.574456 v -9.53185 h 1.574456 v 1.48084 q 0.561698,-0.85956 1.31914,-1.28509 0.765951,-0.42553 1.761689,-0.42553 1.642541,0 2.485088,1.02127 0.842547,1.01276 0.842547,2.98721 z" />
      <path
         d="m 97.610637,258.34526 -0.02365,0.76558 c -2.70319,-0.085 -5.394858,-0.34747 -8.058211,-0.77478 -0.09533,1.0763 0.138478,1.94677 0.728049,2.60541 0.594639,0.65143 1.514217,1.05854 2.738033,1.18104 0.708474,0.0709 1.402244,0.0549 2.074411,-0.0465 0.678871,-0.10095 1.352578,-0.28633 2.014429,-0.55599 l -0.05567,1.47963 c -0.681603,0.21191 -1.384251,0.35588 -2.10284,0.4307 -0.71858,0.0748 -1.445467,0.0753 -2.174693,0.001 -1.82851,-0.18613 -3.212257,-0.84368 -4.103557,-1.88645 -0.889103,-1.04686 -1.155493,-2.31903 -0.874663,-3.80104 0.290166,-1.53127 0.978642,-2.65946 1.999252,-3.41085 1.032985,-0.76006 2.249082,-1.03735 3.711076,-0.88178 1.311034,0.13952 2.313791,0.61789 3.052232,1.48585 0.740778,0.85807 1.119561,1.99176 1.075807,3.4081 z m -1.712764,-0.53783 c 0.03842,-0.85526 -0.184997,-1.55326 -0.64787,-2.09746 -0.458164,-0.54533 -1.082646,-0.85169 -1.890071,-0.93739 -0.914521,-0.0971 -1.6746,0.0492 -2.302511,0.45783 -0.619996,0.40822 -1.052426,1.04294 -1.280143,1.91354 2.027309,0.32075 4.070125,0.54386 6.120595,0.66348 z"
         style="stroke-width:1.30722427"
         id="path8857"
         inkscape:connector-curvature="0"
         inkscape:original-d="m 98.148746,240.59726 v 0.76595 h -7.199947 q 0.102127,1.61701 0.970205,2.46807 0.87659,0.84255 2.434025,0.84255 0.902121,0 1.744668,-0.22128 0.851058,-0.22127 1.685094,-0.66382 v 1.48084 q -0.842547,0.35744 -1.727647,0.54467 -0.8851,0.18724 -1.795731,0.18724 -2.280835,0 -3.616995,-1.32765 -1.32765,-1.32765 -1.32765,-3.59147 0,-2.34041 1.259565,-3.71061 1.268076,-1.37871 3.412741,-1.37871 1.92339,0 3.038276,1.24254 1.123396,1.23404 1.123396,3.36168 z M 96.5828,240.13769 q -0.01702,-1.2851 -0.723399,-2.05105 -0.697867,-0.76595 -1.855306,-0.76595 -1.310628,0 -2.102112,0.74042 -0.782973,0.74042 -0.902121,2.08509 z" />
      <path
         d="m 100.34297,250.288 c 0.50504,-0.007 1.0105,-0.0217 1.51623,-0.0433 l 0.56872,13.21797 c -0.62589,0.0271 -1.25273,0.0459 -1.88037,0.0562 z"
         style="stroke-width:1.30722427"
         id="path8859"
         inkscape:connector-curvature="0"
         inkscape:original-d="m 100.71894,232.51221 h 1.56595 v 13.24246 h -1.56595 z" />
      <path
         d="m 112.53975,250.77992 1.02501,4.66557 c 0.76595,-0.16828 1.52923,-0.34927 2.28943,-0.54257 0.84443,-0.21471 1.44037,-0.59579 1.7806,-1.12273 0.34116,-0.5284 0.3961,-1.1603 0.17979,-1.89576 -0.2146,-0.72966 -0.60046,-1.22869 -1.14456,-1.50447 -0.54561,-0.27656 -1.205,-0.30818 -1.99321,-0.10755 -0.71025,0.18078 -1.42273,0.35009 -2.13706,0.50751 z m -1.97391,-1.03494 c 1.25906,-0.24314 2.51404,-0.52484 3.76258,-0.84274 1.37413,-0.34988 2.48704,-0.34341 3.38199,0.0622 0.89389,0.39626 1.54827,1.17529 1.92989,2.35763 0.38535,1.19389 0.30753,2.21631 -0.27325,3.06648 -0.57177,0.84383 -1.63195,1.49503 -3.16447,1.88459 -0.77498,0.197 -1.55329,0.38145 -2.33452,0.55294 l 1.09627,4.98992 c -0.6652,0.14562 -1.33281,0.28249 -2.00263,0.41039 z"
         style="stroke-width:1.30722427"
         id="path8861"
         inkscape:connector-curvature="0"
         inkscape:original-d="m 112.88906,234.46114 v 4.77443 h 2.16169 q 1.19999,0 1.8553,-0.62127 0.65532,-0.62128 0.65532,-1.7702 0,-1.14042 -0.65532,-1.76169 -0.65531,-0.62127 -1.8553,-0.62127 z m -1.71913,-1.41276 h 3.88082 q 2.13615,0 3.22551,0.97021 1.09786,0.96169 1.09786,2.82551 0,1.88083 -1.09786,2.84253 -1.08936,0.96169 -3.22551,0.96169 h -2.16169 v 5.10635 h -1.71913 z" />
      <path
         d="m 130.8211,250.92734 0.32376,0.6934 c -2.41737,1.12803 -4.88404,2.15705 -7.40018,3.07083 0.43878,0.98762 1.06183,1.6357 1.88423,1.93228 0.82409,0.28811 1.80454,0.21082 2.91289,-0.24683 0.64163,-0.26493 1.23032,-0.59592 1.76269,-0.98971 0.53841,-0.39643 1.03527,-0.86224 1.48726,-1.39531 l 0.62022,1.34317 c -0.49046,0.48828 -1.02698,0.9284 -1.60746,1.31808 -0.58044,0.38968 -1.20093,0.72098 -1.85823,0.99156 -1.64797,0.67841 -3.13898,0.76186 -4.40788,0.27884 -0.44573,-0.17128 -0.84155,-0.40395 -1.18791,-0.69604 -0.63776,-0.53668 -1.10456,-1.27175 -1.41724,-2.19807 -0.3315,-0.98205 -0.42261,-1.89635 -0.29149,-2.73559 0.0664,-0.42406 0.18975,-0.83014 0.36873,-1.21892 0.53803,-1.16783 1.48571,-2.00586 2.86975,-2.56906 1.24152,-0.50521 2.3726,-0.55318 3.43422,-0.12335 1.06124,0.42078 1.9073,1.26115 2.50664,2.54472 z m -1.75797,0.29658 c -0.35904,-0.77678 -0.87737,-1.29359 -1.54307,-1.5598 -0.66136,-0.26915 -1.36375,-0.24582 -2.12284,0.0634 -0.85963,0.35014 -1.46315,0.84588 -1.81884,1.50707 -0.34922,0.65757 -0.41925,1.42241 -0.19548,2.29417 1.92179,-0.70163 3.81517,-1.47242 5.68023,-2.3048 z"
         style="stroke-width:1.30722427"
         id="path8863"
         inkscape:connector-curvature="0"
         inkscape:original-d="m 129.14426,240.59726 v 0.76595 h -7.19994 q 0.10212,1.61701 0.9702,2.46807 0.87659,0.84255 2.43403,0.84255 0.90212,0 1.74466,-0.22128 0.85106,-0.22127 1.6851,-0.66382 v 1.48084 q -0.84255,0.35744 -1.72765,0.54467 -0.8851,0.18724 -1.79573,0.18724 -2.28083,0 -3.61699,-1.32765 -1.32765,-1.32765 -1.32765,-3.59147 0,-2.34041 1.25956,-3.71061 1.26808,-1.37871 3.41274,-1.37871 1.92339,0 3.03828,1.24254 1.12339,1.23404 1.12339,3.36168 z m -1.56594,-0.45957 q -0.017,-1.2851 -0.7234,-2.05105 -0.69787,-0.76595 -1.85531,-0.76595 -1.31063,0 -2.10211,0.74042 -0.78297,0.74042 -0.90212,2.08509 z" />
      <path
         d="m 141.21861,245.32129 0.39972,0.65425 c -2.27088,1.38685 -4.59081,2.69892 -6.95996,3.91995 0.56148,0.92343 1.26078,1.48811 2.10917,1.68282 0.84938,0.18622 1.80444,-0.006 2.84027,-0.58649 0.59973,-0.33614 1.13989,-0.73069 1.61808,-1.18069 0.48381,-0.45329 0.91944,-0.97018 1.30448,-1.54868 l 0.76846,1.26747 c -0.42666,0.5372 -0.90301,1.03198 -1.42761,1.48231 -0.52459,0.45032 -1.09452,0.84787 -1.70744,1.19047 -1.53643,0.85881 -2.98889,1.1174 -4.30064,0.79435 -1.31023,-0.32708 -2.28213,-1.18328 -2.94961,-2.5362 -0.68942,-1.3974 -0.82161,-2.71123 -0.44006,-3.92896 0.38563,-1.22962 1.22777,-2.18875 2.54444,-2.92297 1.18117,-0.65866 2.30878,-0.8422 3.41736,-0.53749 1.10787,0.29592 2.04334,1.03864 2.78334,2.24986 z m -1.71286,0.49243 c -0.44681,-0.73173 -1.02193,-1.1865 -1.71664,-1.37289 -0.69047,-0.18976 -1.38914,-0.0819 -2.1092,0.31956 -0.81537,0.45459 -1.35586,1.02466 -1.62676,1.72664 -0.26502,0.69785 -0.23651,1.46556 0.0972,2.3015 1.81332,-0.93952 3.5984,-1.93364 5.35537,-2.97481 z"
         style="stroke-width:1.30722427"
         id="path8865"
         inkscape:connector-curvature="0"
         inkscape:original-d="m 139.86759,240.59726 v 0.76595 h -7.19995 q 0.10213,1.61701 0.97021,2.46807 0.87659,0.84255 2.43402,0.84255 0.90213,0 1.74467,-0.22128 0.85106,-0.22127 1.6851,-0.66382 v 1.48084 q -0.84255,0.35744 -1.72765,0.54467 -0.8851,0.18724 -1.79573,0.18724 -2.28084,0 -3.617,-1.32765 -1.32765,-1.32765 -1.32765,-3.59147 0,-2.34041 1.25957,-3.71061 1.26807,-1.37871 3.41274,-1.37871 1.92339,0 3.03828,1.24254 1.12339,1.23404 1.12339,3.36168 z m -1.56594,-0.45957 q -0.017,-1.2851 -0.7234,-2.05105 -0.69787,-0.76595 -1.85531,-0.76595 -1.31063,0 -2.10211,0.74042 -0.78297,0.74042 -0.90212,2.08509 z" />
      <path
         d="m 146.96416,238.03887 c -0.21354,0.0261 -0.4255,0.0853 -0.63625,0.17772 -0.20904,0.0842 -0.42341,0.20281 -0.64369,0.35562 -0.78061,0.54152 -1.22284,1.18902 -1.32832,1.95725 -0.10334,0.75859 0.13735,1.59102 0.73254,2.49048 l 2.77362,4.19161 c -0.50051,0.33162 -1.0038,0.6601 -1.50987,0.98529 l -5.1576,-8.02815 c 0.46926,-0.30144 0.93669,-0.6062 1.40229,-0.91409 l 0.81798,1.23617 c -0.0243,-0.6784 0.11861,-1.2888 0.42829,-1.83406 0.30669,-0.55032 0.78793,-1.05116 1.44558,-1.51042 0.094,-0.0656 0.20258,-0.13127 0.32592,-0.19712 0.12008,-0.0705 0.2573,-0.14283 0.41172,-0.21726 0.31257,0.43567 0.62517,0.87133 0.93779,1.30696 z"
         style="stroke-width:1.30722427"
         id="path8867"
         inkscape:connector-curvature="0"
         inkscape:original-d="m 147.96115,237.68664 q -0.26383,-0.15319 -0.57872,-0.22127 -0.30638,-0.0766 -0.68084,-0.0766 -1.32765,0 -2.04254,0.86808 -0.70638,0.85957 -0.70638,2.47658 v 5.02124 h -1.57446 v -9.53185 h 1.57446 v 1.48084 q 0.49361,-0.86807 1.2851,-1.28509 0.79148,-0.42553 1.92339,-0.42553 0.1617,0 0.35744,0.0255 0.19574,0.017 0.43404,0.0596 z" />
    </g>
  </g>
</svg>
